<svg width="18" height="18" viewBox="0 0 18 18" fill="none" xmlns="http://www.w3.org/2000/svg">
<path d="M9 0C6.61359 0 4.32281 0.948797 2.63672 2.63602C0.949219 4.32323 0 6.61402 0 9C0 11.386 0.949219 13.6768 2.63672 15.364C4.32281 17.0512 6.61359 18 9 18C11.3864 18 13.6772 17.0512 15.3633 15.364C17.0508 13.6768 18 11.386 18 9C18 6.61402 17.0508 4.32323 15.3633 2.63602C13.6772 0.948797 11.3864 0 9 0Z" fill="#5865F2"/>
<path d="M10.4738 5C10.3675 5.18311 10.272 5.37253 10.1851 5.56617C9.36037 5.4462 8.5204 5.4462 7.69344 5.56617C7.60879 5.37253 7.51112 5.18311 7.40476 5C6.62991 5.12839 5.87457 5.35359 5.15832 5.6714C3.73882 7.71087 3.35465 9.69772 3.54565 11.6572C4.37694 12.2528 5.30807 12.7075 6.3 12.9979C6.52356 12.7075 6.72106 12.3981 6.89035 12.076C6.56914 11.9603 6.25875 11.8151 5.96139 11.6467C6.03954 11.592 6.11551 11.5351 6.18929 11.4804C7.93219 12.276 9.95074 12.276 11.6958 11.4804C11.7696 11.5393 11.8456 11.5962 11.9237 11.6467C11.6264 11.8172 11.316 11.9603 10.9926 12.0781C11.1619 12.4002 11.3594 12.7096 11.5829 13C12.5748 12.7096 13.506 12.257 14.3373 11.6614C14.563 9.38832 13.9509 7.41832 12.7203 5.67351C12.0062 5.3557 11.2509 5.13049 10.476 5.00421L10.4738 5ZM7.13345 10.4512C6.59734 10.4512 6.15239 9.97975 6.15239 9.39673C6.15239 8.81373 6.57998 8.34017 7.13129 8.34017C7.6826 8.34017 8.12103 8.81583 8.11233 9.39673C8.10365 9.97763 7.68041 10.4512 7.13345 10.4512ZM10.7495 10.4512C10.2112 10.4512 9.77058 9.97975 9.77058 9.39673C9.77058 8.81373 10.1982 8.34017 10.7495 8.34017C11.3008 8.34017 11.737 8.81583 11.7284 9.39673C11.7197 9.97763 11.2964 10.4512 10.7495 10.4512Z" fill="white"/>
</svg>
