<svg width="18" height="18" viewBox="0 0 18 18" fill="none" xmlns="http://www.w3.org/2000/svg">
<path d="M9 0C6.61359 0 4.32281 0.948797 2.63672 2.63602C0.949219 4.32323 0 6.61402 0 9C0 11.386 0.949219 13.6768 2.63672 15.364C4.32281 17.0512 6.61359 18 9 18C11.3864 18 13.6772 17.0512 15.3633 15.364C17.0508 13.6768 18 11.386 18 9C18 6.61402 17.0508 4.32323 15.3633 2.63602C13.6772 0.948797 11.3864 0 9 0Z" fill="url(#paint0_linear_643_157)"/>
<path d="M4.07392 8.9049C6.69798 7.7619 8.44733 7.00829 9.32202 6.64422C11.8223 5.60458 12.3412 5.42401 12.6801 5.41797C12.7547 5.4167 12.9206 5.43512 13.0289 5.52273C13.1189 5.59656 13.1442 5.6964 13.1569 5.76644C13.1681 5.83647 13.1836 5.99608 13.1709 6.12067C13.0359 7.5438 12.4495 10.9973 12.1514 12.5912C12.0263 13.2657 11.7773 13.4918 11.5369 13.5139C11.0137 13.562 10.6172 13.1685 10.1109 12.8368C9.31919 12.3175 8.87203 11.9943 8.10281 11.4876C7.21406 10.9021 7.79061 10.5802 8.29686 10.0542C8.42904 9.91656 10.7325 7.82195 10.7761 7.63197C10.7817 7.6082 10.7873 7.51961 10.7339 7.47292C10.6819 7.42609 10.6045 7.44212 10.5482 7.45478C10.4681 7.47278 9.20386 8.30922 6.75136 9.96395C6.39276 10.2106 6.06793 10.3308 5.77543 10.3245C5.4548 10.3176 4.83609 10.1428 4.37625 9.99348C3.81375 9.81025 3.36513 9.71336 3.40451 9.40215C3.4242 9.24015 3.64782 9.07436 4.07392 8.9049Z" fill="white"/>
<defs>
<linearGradient id="paint0_linear_643_157" x1="9" y1="0" x2="9" y2="18" gradientUnits="userSpaceOnUse">
<stop stop-color="#2AABEE"/>
<stop offset="1" stop-color="#229ED9"/>
</linearGradient>
</defs>
</svg>
